HIERARCHY
ROOT Hips
{
	OFFSET 0.000000 89.005402 0.000000
	CHANNELS 6 Xposition Yposition Zposition Xrotation Yrotation Zrotation
	JOINT Spine
	{
		OFFSET 0.116900 10.681000 0.373400
		CHANNELS 3 Xrotation Yrotation Zrotation
		JOINT Spine1
		{
			OFFSET 0.000000 13.840401 0.053500
			CHANNELS 3 Xrotation Yrotation Zrotation
			JOINT Spine2
			{
				OFFSET 0.000000 14.712700 -0.366200
				CHANNELS 3 Xrotation Yrotation Zrotation
				JOINT Neck
				{
					OFFSET 0.000000 35.415497 -3.314200
					CHANNELS 3 Xrotation Yrotation Zrotation
					JOINT Head
					{
						OFFSET 0.000000 16.899200 1.218300
						CHANNELS 3 Xrotation Yrotation Zrotation
						JOINT HeadTop_End
						{
							OFFSET 0.000000 22.206207 2.192500
							CHANNELS 3 Xrotation Yrotation Zrotation
							End Site
							{
								OFFSET 0.000000 22.314178 0.000000
							}
						}
					}
				}
				JOINT LeftShoulder
				{
					OFFSET 12.896400 26.716293 -4.548400
					CHANNELS 3 Xrotation Yrotation Zrotation
					JOINT LeftArm
					{
						OFFSET 19.027000 -4.857010 -1.718400
						CHANNELS 3 Xrotation Yrotation Zrotation
						JOINT LeftForeArm
						{
							OFFSET 24.179897 0.000000 0.000000
							CHANNELS 3 Xrotation Yrotation Zrotation
							JOINT LeftHand
							{
								OFFSET 27.156403 0.000000 0.000000
								CHANNELS 3 Xrotation Yrotation Zrotation
								JOINT LeftHandIndex1
								{
									OFFSET 16.441200 0.000000 0.000000
									CHANNELS 3 Xrotation Yrotation Zrotation
									JOINT LeftHandIndex2
									{
										OFFSET 4.821899 0.000000 0.000000
										CHANNELS 3 Xrotation Yrotation Zrotation
										JOINT LeftHandIndex3
										{
											OFFSET 6.386497 0.000000 0.000000
											CHANNELS 3 Xrotation Yrotation Zrotation
											JOINT LeftHandIndex4
											{
												OFFSET 5.188988 0.000000 0.000000
												CHANNELS 3 Xrotation Yrotation Zrotation
												End Site
												{
													OFFSET -0.178703 5.185913 0.000177
												}
											}
										}
									}
								}
								JOINT LeftHandThumb1
								{
									OFFSET 6.534897 -5.032593 5.900300
									CHANNELS 3 Xrotation Yrotation Zrotation
									JOINT LeftHandThumb2
									{
										OFFSET 3.818176 -2.204422 2.204423
										CHANNELS 3 Xrotation Yrotation Zrotation
										JOINT LeftHandThumb3
										{
											OFFSET 3.252098 -1.877594 1.877601
											CHANNELS 3 Xrotation Yrotation Zrotation
											JOINT LeftHandThumb4
											{
												OFFSET 5.251778 -3.032120 3.032117
												CHANNELS 3 Xrotation Yrotation Zrotation
												End Site
												{
													OFFSET 0.000023 6.780014 0.000000
												}
											}
										}
									}
								}
							}
						}
					}
				}
				JOINT RightShoulder
				{
					OFFSET -12.896300 26.716293 -4.548400
					CHANNELS 3 Xrotation Yrotation Zrotation
					JOINT RightArm
					{
						OFFSET -19.027000 -4.857010 -1.718400
						CHANNELS 3 Xrotation Yrotation Zrotation
						JOINT RightForeArm
						{
							OFFSET -24.179897 0.000000 0.000000
							CHANNELS 3 Xrotation Yrotation Zrotation
							JOINT RightHand
							{
								OFFSET -27.156403 0.000000 0.000000
								CHANNELS 3 Xrotation Yrotation Zrotation
								JOINT RightHandThumb1
								{
									OFFSET -6.591202 -4.852203 5.988100
									CHANNELS 3 Xrotation Yrotation Zrotation
									JOINT RightHandThumb2
									{
										OFFSET -3.818176 -2.204422 2.204423
										CHANNELS 3 Xrotation Yrotation Zrotation
										JOINT RightHandThumb3
										{
											OFFSET -3.252098 -1.877594 1.877601
											CHANNELS 3 Xrotation Yrotation Zrotation
											JOINT RightHandThumb4
											{
												OFFSET -5.251778 -3.032120 3.032117
												CHANNELS 3 Xrotation Yrotation Zrotation
												End Site
												{
													OFFSET -0.000023 6.780014 0.000000
												}
											}
										}
									}
								}
								JOINT RightHandIndex1
								{
									OFFSET -16.029404 0.000000 0.000000
									CHANNELS 3 Xrotation Yrotation Zrotation
									JOINT RightHandIndex2
									{
										OFFSET -5.213303 0.000000 0.000000
										CHANNELS 3 Xrotation Yrotation Zrotation
										JOINT RightHandIndex3
										{
											OFFSET -6.386528 0.000000 0.000000
											CHANNELS 3 Xrotation Yrotation Zrotation
											JOINT RightHandIndex4
											{
												OFFSET -5.189026 0.000000 0.000000
												CHANNELS 3 Xrotation Yrotation Zrotation
												End Site
												{
													OFFSET 0.236702 5.183624 0.001972
												}
											}
										}
									}
								}
							}
						}
					}
				}
			}
		}
	}
	JOINT LeftUpLeg
	{
		OFFSET 14.073000 -7.904099 -1.463000
		CHANNELS 3 Xrotation Yrotation Zrotation
		JOINT LeftLeg
		{
			OFFSET -0.109806 -34.073280 4.093200
			CHANNELS 3 Xrotation Yrotation Zrotation
			JOINT LeftFoot
			{
				OFFSET 0.109806 -29.899420 -6.319000
				CHANNELS 3 Xrotation Yrotation Zrotation
				JOINT LeftToeBase
				{
					OFFSET 1.551100 -14.988700 20.535801
					CHANNELS 3 Xrotation Yrotation Zrotation
					JOINT LeftToe_End
					{
						OFFSET 0.221200 0.570800 13.248301
						CHANNELS 3 Xrotation Yrotation Zrotation
						End Site
						{
							OFFSET 0.000000 13.262435 0.000000
						}
					}
				}
			}
		}
	}
	JOINT RightUpLeg
	{
		OFFSET -13.839300 -7.904099 -1.463000
		CHANNELS 3 Xrotation Yrotation Zrotation
		JOINT RightLeg
		{
			OFFSET 0.109694 -34.073219 4.093300
			CHANNELS 3 Xrotation Yrotation Zrotation
			JOINT RightFoot
			{
				OFFSET -0.109694 -29.899384 -6.319200
				CHANNELS 3 Xrotation Yrotation Zrotation
				JOINT RightToeBase
				{
					OFFSET -1.551100 -14.988700 20.535801
					CHANNELS 3 Xrotation Yrotation Zrotation
					JOINT RightToe_End
					{
						OFFSET -0.221200 0.570900 13.248299
						CHANNELS 3 Xrotation Yrotation Zrotation
						End Site
						{
							OFFSET 0.000000 13.262440 0.000000
						}
					}
				}
			}
		}
	}
}
MOTION
Frames: 4
Frame Time: 0.033333
-3.074979 71.468330 -1.500212 -8.011172 -11.662553 3.183557 9.730562 30.415642 -1.343504 4.472147 6.234260 -1.327503 4.523697 6.232274 -1.164125 9.681248 -1.427017 -0.202553 21.224200 -11.223108 18.384964 -0.000004 -0.000001 0.000001 0.238760 5.784788 -5.336178 17.197194 -5.673887 -67.166557 0.000005 -117.309264 0.000011 19.558993 -26.814245 20.408175 7.376615 6.995864 -82.868028 10.660389 5.754693 -123.375947 9.031510 6.538123 -108.250398 0.000000 -0.000002 -0.000001 8.479885 4.383760 2.969938 19.013117 28.280142 -21.354936 22.273751 66.234325 -0.981000 -0.000000 0.000001 -0.000004 0.651306 -0.166261 11.663322 -56.177917 21.185328 60.866404 0.000006 117.507421 -0.000003 -14.161612 30.105794 -15.376677 3.730605 -15.146469 -0.640020 25.718364 -30.637958 6.872479 34.940850 -53.897361 18.221357 -0.000000 -0.000000 0.000000 9.496666 -7.184063 85.217299 9.838768 -6.321116 114.636215 9.049197 -6.624477 107.640797 0.000001 0.000001 0.000001 -43.462881 -19.513967 -5.288407 38.518565 -9.838566 4.362486 3.481109 -6.211762 -21.955425 -0.000023 0.000002 -0.000003 0.000000 0.000000 -0.000000 21.928418 -36.261075 -2.028421 43.201520 -11.550510 -8.257887 -48.172112 -25.485362 10.718721 -6.286888 -0.000053 -0.000006 -0.000000 -0.000001 0.000000 
-3.055907 71.449310 -0.892320 -7.811282 -14.090696 2.748936 9.511818 30.031365 -0.582334 4.339573 6.173790 -1.236438 4.397825 6.165522 -1.082999 9.813354 -1.424343 -0.091429 20.728758 -11.024940 17.489982 -0.000001 0.000002 0.000000 0.168820 5.993477 -4.584213 18.155147 -8.468816 -65.954984 0.000015 -118.068685 0.000015 17.686088 -27.976204 17.211438 7.409876 6.993457 -83.141120 10.671692 5.747272 -123.488796 9.026425 6.539791 -108.205762 -0.000001 0.000002 0.000001 8.378809 4.900579 3.696551 19.225104 28.071198 -21.468022 21.994871 66.294000 -0.701747 0.000001 0.000000 0.000000 0.674011 -0.180622 12.370849 -54.844015 22.276257 59.754047 0.000027 117.438532 -0.000048 -13.966427 29.871255 -15.056612 3.715685 -15.361447 -0.847889 25.698909 -30.660169 6.865818 35.000912 -53.876945 18.244740 -0.000001 0.000000 0.000000 9.503297 -7.186934 85.174972 9.834870 -6.322907 114.600739 9.058821 -6.621436 107.724255 -0.000000 0.000001 -0.000000 -43.331550 -18.874427 -3.861882 41.398142 -9.734332 3.769804 1.258156 -4.917389 -20.801737 -0.944942 -0.000057 0.000001 -0.000000 0.000001 0.000000 21.178228 -35.792425 -3.869353 43.149338 -11.624465 -8.120109 -47.717450 -23.700104 12.350163 -6.438234 -0.000027 -0.000013 -0.000000 0.000001 -0.000001 
-2.993639 71.808685 -0.087055 -7.177482 -18.437445 2.189246 9.191454 29.489147 0.223790 4.133806 6.093003 -1.197934 4.203355 6.077406 -1.057826 9.857052 -1.301401 -0.132335 20.079771 -10.252031 15.967802 -0.000001 -0.000000 -0.000000 0.061689 6.504393 -3.613910 20.131547 -12.108302 -64.271424 0.000033 -119.362200 0.000011 17.797241 -29.172476 16.324412 7.476276 6.988133 -83.686695 10.693421 5.732936 -123.706119 9.012601 6.544301 -108.084472 0.000001 -0.000002 -0.000002 8.312547 5.249774 4.158067 19.406470 27.884766 -21.568201 21.787276 66.337803 -0.493913 0.000000 -0.000000 0.000001 0.696114 -0.236309 13.016040 -53.262532 23.589540 58.567520 0.000072 117.243585 -0.000062 -13.026882 30.535662 -15.771245 3.726855 -15.500802 -0.988857 25.686492 -30.681264 6.857279 35.057974 -53.857572 18.266967 -0.000000 -0.000000 0.000000 9.503722 -7.185415 85.203434 9.839204 -6.320947 114.640081 9.071430 -6.617415 107.833613 0.000001 -0.000003 0.000004 -42.134563 -17.606355 -1.259305 43.885331 -9.824716 3.320931 -1.456417 -2.627015 -19.755615 -1.248453 0.000019 0.000001 0.000000 0.000000 -0.000000 19.407933 -34.798806 -7.251534 42.127511 -11.087033 -7.694173 -46.408055 -20.341295 15.310055 -6.314555 0.000004 0.000002 -0.000000 -0.000001 0.000000 
-2.864605 72.535263 1.005816 -5.887078 -24.931732 1.684256 8.640528 28.814393 1.092884 3.843472 5.994571 -1.230119 3.928980 5.971565 -1.105399 9.832243 -0.969320 -0.478616 19.196486 -8.562346 13.449228 -0.000002 -0.000000 0.000001 -0.112758 7.346702 -2.239343 22.785880 -17.574898 -61.900352 0.000011 -121.355973 -0.000012 20.506470 -27.613258 17.933671 7.532345 6.983157 -84.147801 10.731042 5.707756 -124.083241 8.995937 6.549671 -107.938285 0.000004 -0.000000 -0.000000 8.311147 5.273014 4.213429 19.590753 27.687890 -21.675037 21.742116 66.347133 -0.448735 0.000001 -0.000000 0.000002 0.690992 -0.173239 12.912269 -51.194392 25.176856 57.448106 0.000003 116.772835 -0.000009 -10.570780 32.050024 -18.554228 3.776700 -15.418886 -0.933985 25.688413 -30.693398 6.848915 35.108777 -53.840336 18.286751 0.000002 -0.000000 -0.000001 9.490001 -7.186944 85.154250 9.845881 -6.317890 114.700815 9.098098 -6.608846 108.065074 0.000001 -0.000000 -0.000002 -39.852054 -14.925196 2.448878 45.605504 -10.202359 3.583953 -4.647227 0.293185 -19.389041 -0.479912 0.000020 0.000006 -0.000000 0.000000 -0.000000 16.146079 -32.748541 -11.852459 40.081654 -10.296917 -7.394924 -44.023663 -15.628134 19.552019 -6.050636 -0.000016 -0.000005 -0.000000 0.000000 0.000000 
